Wavefont-w1r100a1.ufo
<glyph name="_5" format="2">
	<unicode hex="0105"/>
	<advance width="1"/>
	<outline>
		<component base="cap" yOffset="950"/>
		<component base="cap" yOffset="999"/>
		<contour>
			<point x="0" y="951" type="line"/>
			<point x="0" y="1000" type="line"/>
			<point x="1" y="1000" type="line"/>
			<point x="1" y="951" type="line"/>
		</contour>
	</outline>
</glyph>
<glyph name="_9" format="2">
	<unicode hex="0109"/>
	<advance width="1"/>
	<outline>
		<component base="cap" yOffset="910"/>
		<component base="cap" yOffset="999"/>
		<contour>
			<point x="0" y="911" type="line"/>
			<point x="0" y="1000" type="line"/>
			<point x="1" y="1000" type="line"/>
			<point x="1" y="911" type="line"/>
		</contour>
	</outline>
</glyph>
<glyph name="_10" format="2">
	<unicode hex="010A"/>
	<unicode hex="0031"/>
	<unicode hex="0066"/>
	<advance width="1"/>
	<outline>
		<component base="cap" yOffset="900"/>
		<component base="cap" yOffset="999"/>
		<contour>
			<point x="0" y="901" type="line"/>
			<point x="0" y="1000" type="line"/>
			<point x="1" y="1000" type="line"/>
			<point x="1" y="901" type="line"/>
		</contour>
	</outline>
</glyph>
<glyph name="_17" format="2">
	<unicode hex="0111"/>
	<advance width="1"/>
	<outline>
		<component base="cap" yOffset="830"/>
		<component base="cap" yOffset="999"/>
		<contour>
			<point x="0" y="831" type="line"/>
			<point x="0" y="1000" type="line"/>
			<point x="1" y="1000" type="line"/>
			<point x="1" y="831" type="line"/>
		</contour>
	</outline>
</glyph>
<glyph name="_20" format="2">
	<unicode hex="0114"/>
	<unicode hex="0032"/>
	<unicode hex="006B"/>
	<advance width="1"/>
	<outline>
		<component base="cap" yOffset="800"/>
		<component base="cap" yOffset="999"/>
		<contour>
			<point x="0" y="801" type="line"/>
			<point x="0" y="1000" type="line"/>
			<point x="1" y="1000" type="line"/>
			<point x="1" y="801" type="line"/>
		</contour>
	</outline>
</glyph>
<glyph name="_28" format="2">
	<unicode hex="011C"/>
	<unicode hex="2583"/>
	<unicode hex="006F"/>
	<advance width="1"/>
	<outline>
		<component base="cap" yOffset="720"/>
		<component base="cap" yOffset="999"/>
		<contour>
			<point x="0" y="721" type="line"/>
			<point x="0" y="1000" type="line"/>
			<point x="1" y="1000" type="line"/>
			<point x="1" y="721" type="line"/>
		</contour>
	</outline>
</glyph>
<glyph name="_32" format="2">
	<unicode hex="0120"/>
	<unicode hex="0071"/>
	<advance width="1"/>
	<outline>
		<component base="cap" yOffset="680"/>
		<component base="cap" yOffset="999"/>
		<contour>
			<point x="0" y="681" type="line"/>
			<point x="0" y="1000" type="line"/>
			<point x="1" y="1000" type="line"/>
			<point x="1" y="681" type="line"/>
		</contour>
	</outline>
</glyph>
<glyph name="_33" format="2">
	<unicode hex="0121"/>
	<advance width="1"/>
	<outline>
		<component base="cap" yOffset="670"/>
		<component base="cap" yOffset="999"/>
		<contour>
			<point x="0" y="671" type="line"/>
			<point x="0" y="1000" type="line"/>
			<point x="1" y="1000" type="line"/>
			<point x="1" y="671" type="line"/>
		</contour>
	</outline>
</glyph>
<glyph name="_39" format="2">
	<unicode hex="0127"/>
	<advance width="1"/>
	<outline>
		<component base="cap" yOffset="610"/>
		<component base="cap" yOffset="999"/>
		<contour>
			<point x="0" y="611" type="line"/>
			<point x="0" y="1000" type="line"/>
			<point x="1" y="1000" type="line"/>
			<point x="1" y="611" type="line"/>
		</contour>
	</outline>
</glyph>
<glyph name="_46" format="2">
	<unicode hex="012E"/>
	<unicode hex="0078"/>
	<advance width="1"/>
	<outline>
		<component base="cap" yOffset="540"/>
		<component base="cap" yOffset="999"/>
		<contour>
			<point x="0" y="541" type="line"/>
			<point x="0" y="1000" type="line"/>
			<point x="1" y="1000" type="line"/>
			<point x="1" y="541" type="line"/>
		</contour>
	</outline>
</glyph>
<glyph name="_47" format="2">
	<unicode hex="012F"/>
	<advance width="1"/>
	<outline>
		<component base="cap" yOffset="530"/>
		<component base="cap" yOffset="999"/>
		<contour>
			<point x="0" y="531" type="line"/>
			<point x="0" y="1000" type="line"/>
			<point x="1" y="1000" type="line"/>
			<point x="1" y="531" type="line"/>
		</contour>
	</outline>
</glyph>
<glyph name="_49" format="2">
	<unicode hex="0131"/>
	<advance width="1"/>
	<outline>
		<component base="cap" yOffset="510"/>
		<component base="cap" yOffset="999"/>
		<contour>
			<point x="0" y="511" type="line"/>
			<point x="0" y="1000" type="line"/>
			<point x="1" y="1000" type="line"/>
			<point x="1" y="511" type="line"/>
		</contour>
	</outline>
</glyph>
<glyph name="_56" format="2">
	<unicode hex="0138"/>
	<unicode hex="2585"/>
	<unicode hex="0043"/>
	<advance width="1"/>
	<outline>
		<component base="cap" yOffset="440"/>
		<component base="cap" yOffset="999"/>
		<contour>
			<point x="0" y="441" type="line"/>
			<point x="0" y="1000" type="line"/>
			<point x="1" y="1000" type="line"/>
			<point x="1" y="441" type="line"/>
		</contour>
	</outline>
</glyph>
<glyph name="_61" format="2">
	<unicode hex="013D"/>
	<advance width="1"/>
	<outline>
		<component base="cap" yOffset="390"/>
		<component base="cap" yOffset="999"/>
		<contour>
			<point x="0" y="391" type="line"/>
			<point x="0" y="1000" type="line"/>
			<point x="1" y="1000" type="line"/>
			<point x="1" y="391" type="line"/>
		</contour>
	</outline>
</glyph>
<glyph name="_79" format="2">
	<unicode hex="014F"/>
	<advance width="1"/>
	<outline>
		<component base="cap" yOffset="210"/>
		<component base="cap" yOffset="999"/>
		<contour>
			<point x="0" y="211" type="line"/>
			<point x="0" y="1000" type="line"/>
			<point x="1" y="1000" type="line"/>
			<point x="1" y="211" type="line"/>
		</contour>
	</outline>
</glyph>
<glyph name="_84" format="2">
	<unicode hex="0154"/>
	<unicode hex="0051"/>
	<advance width="1"/>
	<outline>
		<component base="cap" yOffset="160"/>
		<component base="cap" yOffset="999"/>
		<contour>
			<point x="0" y="161" type="line"/>
			<point x="0" y="1000" type="line"/>
			<point x="1" y="1000" type="line"/>
			<point x="1" y="161" type="line"/>
		</contour>
	</outline>
</glyph>
<glyph name="_86" format="2">
	<unicode hex="0156"/>
	<unicode hex="2587"/>
	<unicode hex="0052"/>
	<advance width="1"/>
	<outline>
		<component base="cap" yOffset="140"/>
		<component base="cap" yOffset="999"/>
		<contour>
			<point x="0" y="141" type="line"/>
			<point x="0" y="1000" type="line"/>
			<point x="1" y="1000" type="line"/>
			<point x="1" y="141" type="line"/>
		</contour>
	</outline>
</glyph>
<glyph name="_87" format="2">
	<unicode hex="0157"/>
	<advance width="1"/>
	<outline>
		<component base="cap" yOffset="130"/>
		<component base="cap" yOffset="999"/>
		<contour>
			<point x="0" y="131" type="line"/>
			<point x="0" y="1000" type="line"/>
			<point x="1" y="1000" type="line"/>
			<point x="1" y="131" type="line"/>
		</contour>
	</outline>
</glyph>
<glyph name="_90" format="2">
	<unicode hex="015A"/>
	<unicode hex="0039"/>
	<unicode hex="0054"/>
	<advance width="1"/>
	<outline>
		<component base="cap" yOffset="100"/>
		<component base="cap" yOffset="999"/>
		<contour>
			<point x="0" y="101" type="line"/>
			<point x="0" y="1000" type="line"/>
			<point x="1" y="1000" type="line"/>
			<point x="1" y="101" type="line"/>
		</contour>
	</outline>
</glyph>
<glyph name="_93" format="2">
	<unicode hex="015D"/>
	<advance width="1"/>
	<outline>
		<component base="cap" yOffset="70"/>
		<component base="cap" yOffset="999"/>
		<contour>
			<point x="0" y="71" type="line"/>
			<point x="0" y="1000" type="line"/>
			<point x="1" y="1000" type="line"/>
			<point x="1" y="71" type="line"/>
		</contour>
	</outline>
</glyph>
<glyph name="_112" format="2">
	<unicode hex="0170"/>
	<advance width="1"/>
	<outline>
		<component base="cap" yOffset="-120"/>
		<component base="cap" yOffset="999"/>
		<contour>
			<point x="0" y="-120" type="line"/>
			<point x="0" y="1000" type="line"/>
			<point x="1" y="1000" type="line"/>
			<point x="1" y="-120" type="line"/>
		</contour>
	</outline>
</glyph>
<glyph name="_119" format="2">
	<unicode hex="0177"/>
	<advance width="1"/>
	<outline>
		<component base="cap" yOffset="-190"/>
		<component base="cap" yOffset="999"/>
		<contour>
			<point x="0" y="-190" type="line"/>
			<point x="0" y="1000" type="line"/>
			<point x="1" y="1000" type="line"/>
			<point x="1" y="-190" type="line"/>
		</contour>
	</outline>
</glyph>
<glyph name="_11.clip" format="2">
	<advance width="1"/>
	<outline>
		<contour>
			<point x="0" y="975.25"/>
			<point x="24.75" y="1000"/>
			<point x="55" y="1000" type="curve" smooth="yes"/>
			<point x="-54" y="1000" type="line"/>
			<point x="-23.75" y="1000"/>
			<point x="1" y="975.25"/>
			<point x="1" y="945" type="curve" smooth="yes"/>
			<point x="1" y="945" type="line"/>
			<point x="1" y="914.75"/>
			<point x="-23.75" y="890"/>
			<point x="-54" y="890" type="curve" smooth="yes"/>
			<point x="55" y="890" type="line"/>
			<point x="24.75" y="890"/>
			<point x="0" y="914.75"/>
			<point x="0" y="945" type="curve" smooth="yes"/>
			<point x="0" y="945" type="line"/>
		</contour>
	</outline>
</glyph>
<glyph name="_15.clip" format="2">
	<advance width="1"/>
	<outline>
		<contour>
			<point x="0" y="966.25"/>
			<point x="33.75" y="1000"/>
			<point x="75" y="1000" type="curve" smooth="yes"/>
			<point x="-74" y="1000" type="line"/>
			<point x="-32.75" y="1000"/>
			<point x="1" y="966.25"/>
			<point x="1" y="925" type="curve" smooth="yes"/>
			<point x="1" y="925" type="line"/>
			<point x="1" y="883.75"/>
			<point x="-32.75" y="850"/>
			<point x="-74" y="850" type="curve" smooth="yes"/>
			<point x="75" y="850" type="line"/>
			<point x="33.75" y="850"/>
			<point x="0" y="883.75"/>
			<point x="0" y="925" type="curve" smooth="yes"/>
			<point x="0" y="925" type="line"/>
		</contour>
	</outline>
</glyph>
<glyph name="_16.clip" format="2">
	<advance width="1"/>
	<outline>
		<contour>
			<point x="0" y="964"/>
			<point x="36" y="1000"/>
			<point x="80" y="1000" type="curve" smooth="yes"/>
			<point x="-79" y="1000" type="line"/>
			<point x="-35" y="1000"/>
			<point x="1" y="964"/>
			<point x="1" y="920" type="curve" smooth="yes"/>
			<point x="1" y="920" type="line"/>
			<point x="1" y="876"/>
			<point x="-35" y="840"/>
			<point x="-79" y="840" type="curve" smooth="yes"/>
			<point x="80" y="840" type="line"/>
			<point x="36" y="840"/>
			<point x="0" y="876"/>
			<point x="0" y="920" type="curve" smooth="yes"/>
			<point x="0" y="920" type="line"/>
		</contour>
	</outline>
</glyph>
<glyph name="_17.clip" format="2">
	<advance width="1"/>
	<outline>
		<contour>
			<point x="0" y="961.75"/>
			<point x="38.25" y="1000"/>
			<point x="85" y="1000" type="curve" smooth="yes"/>
			<point x="-84" y="1000" type="line"/>
			<point x="-37.25" y="1000"/>
			<point x="1" y="961.75"/>
			<point x="1" y="915" type="curve" smooth="yes"/>
			<point x="1" y="915" type="line"/>
			<point x="1" y="868.25"/>
			<point x="-37.25" y="830"/>
			<point x="-84" y="830" type="curve" smooth="yes"/>
			<point x="85" y="830" type="line"/>
			<point x="38.25" y="830"/>
			<point x="0" y="868.25"/>
			<point x="0" y="915" type="curve" smooth="yes"/>
			<point x="0" y="915" type="line"/>
		</contour>
	</outline>
</glyph>
<glyph name="_2.clip" format="2">
	<advance width="1"/>
	<outline>
		<contour>
			<point x="0" y="995.5"/>
			<point x="4.5" y="1000"/>
			<point x="10" y="1000" type="curve" smooth="yes"/>
			<point x="-9" y="1000" type="line"/>
			<point x="-3.5" y="1000"/>
			<point x="1" y="995.5"/>
			<point x="1" y="990" type="curve" smooth="yes"/>
			<point x="1" y="990" type="line"/>
			<point x="1" y="984.5"/>
			<point x="-3.5" y="980"/>
			<point x="-9" y="980" type="curve" smooth="yes"/>
			<point x="10" y="980" type="line"/>
			<point x="4.5" y="980"/>
			<point x="0" y="984.5"/>
			<point x="0" y="990" type="curve" smooth="yes"/>
			<point x="0" y="990" type="line"/>
		</contour>
	</outline>
</glyph>
<glyph name="_24.clip" format="2">
	<advance width="1"/>
	<outline>
		<contour>
			<point x="0" y="946"/>
			<point x="53" y="1000"/>
			<point x="120" y="1000" type="curve" smooth="yes"/>
			<point x="-119" y="1000" type="line"/>
			<point x="-52" y="1000"/>
			<point x="1" y="946"/>
			<point x="1" y="880" type="curve" smooth="yes"/>
			<point x="1" y="880" type="line"/>
			<point x="1" y="814"/>
			<point x="-52" y="760"/>
			<point x="-119" y="760" type="curve" smooth="yes"/>
			<point x="120" y="760" type="line"/>
			<point x="53" y="760"/>
			<point x="0" y="814"/>
			<point x="0" y="880" type="curve" smooth="yes"/>
			<point x="0" y="880" type="line"/>
		</contour>
	</outline>
</glyph>
<glyph name="_26.clip" format="2">
	<advance width="1"/>
	<outline>
		<contour>
			<point x="0" y="941.5"/>
			<point x="58.5" y="1000"/>
			<point x="130" y="1000" type="curve" smooth="yes"/>
			<point x="-129" y="1000" type="line"/>
			<point x="-57.5" y="1000"/>
			<point x="1" y="941.5"/>
			<point x="1" y="870" type="curve" smooth="yes"/>
			<point x="1" y="870" type="line"/>
			<point x="1" y="798.5"/>
			<point x="-57.5" y="740"/>
			<point x="-129" y="740" type="curve" smooth="yes"/>
			<point x="130" y="740" type="line"/>
			<point x="58.5" y="740"/>
			<point x="0" y="798.5"/>
			<point x="0" y="870" type="curve" smooth="yes"/>
			<point x="0" y="870" type="line"/>
		</contour>
	</outline>
</glyph>
<glyph name="_27.clip" format="2">
	<advance width="1"/>
	<outline>
		<contour>
			<point x="0" y="939.25"/>
			<point x="60.75" y="1000"/>
			<point x="135" y="1000" type="curve" smooth="yes"/>
			<point x="-134" y="1000" type="line"/>
			<point x="-59.75" y="1000"/>
			<point x="1" y="939.25"/>
			<point x="1" y="865" type="curve" smooth="yes"/>
			<point x="1" y="865" type="line"/>
			<point x="1" y="790.75"/>
			<point x="-59.75" y="730"/>
			<point x="-134" y="730" type="curve" smooth="yes"/>
			<point x="135" y="730" type="line"/>
			<point x="60.75" y="730"/>
			<point x="0" y="790.75"/>
			<point x="0" y="865" type="curve" smooth="yes"/>
			<point x="0" y="865" type="line"/>
		</contour>
	</outline>
</glyph>
<glyph name="_28.clip" format="2">
	<advance width="1"/>
	<outline>
		<contour>
			<point x="0" y="937"/>
			<point x="62" y="1000"/>
			<point x="140" y="1000" type="curve" smooth="yes"/>
			<point x="-139" y="1000" type="line"/>
			<point x="-61" y="1000"/>
			<point x="1" y="937"/>
			<point x="1" y="860" type="curve" smooth="yes"/>
			<point x="1" y="860" type="line"/>
			<point x="1" y="783"/>
			<point x="-61" y="720"/>
			<point x="-139" y="720" type="curve" smooth="yes"/>
			<point x="140" y="720" type="line"/>
			<point x="62" y="720"/>
			<point x="0" y="783"/>
			<point x="0" y="860" type="curve" smooth="yes"/>
			<point x="0" y="860" type="line"/>
		</contour>
	</outline>
</glyph>
<glyph name="_3.clip" format="2">
	<advance width="1"/>
	<outline>
		<contour>
			<point x="0" y="993.25"/>
			<point x="6.75" y="1000"/>
			<point x="15" y="1000" type="curve" smooth="yes"/>
			<point x="-14" y="1000" type="line"/>
			<point x="-5.75" y="1000"/>
			<point x="1" y="993.25"/>
			<point x="1" y="985" type="curve" smooth="yes"/>
			<point x="1" y="985" type="line"/>
			<point x="1" y="976.75"/>
			<point x="-5.75" y="970"/>
			<point x="-14" y="970" type="curve" smooth="yes"/>
			<point x="15" y="970" type="line"/>
			<point x="6.75" y="970"/>
			<point x="0" y="976.75"/>
			<point x="0" y="985" type="curve" smooth="yes"/>
			<point x="0" y="985" type="line"/>
		</contour>
	</outline>
</glyph>
<glyph name="_30.clip" format="2">
	<advance width="1"/>
	<outline>
		<contour>
			<point x="0" y="932.5"/>
			<point x="67.5" y="1000"/>
			<point x="150" y="1000" type="curve" smooth="yes"/>
			<point x="-149" y="1000" type="line"/>
			<point x="-66.5" y="1000"/>
			<point x="1" y="932.5"/>
			<point x="1" y="850" type="curve" smooth="yes"/>
			<point x="1" y="850" type="line"/>
			<point x="1" y="767.5"/>
			<point x="-66.5" y="700"/>
			<point x="-149" y="700" type="curve" smooth="yes"/>
			<point x="150" y="700" type="line"/>
			<point x="67.5" y="700"/>
			<point x="0" y="767.5"/>
			<point x="0" y="850" type="curve" smooth="yes"/>
			<point x="0" y="850" type="line"/>
		</contour>
	</outline>
</glyph>
<glyph name="_33.clip" format="2">
	<advance width="1"/>
	<outline>
		<contour>
			<point x="0" y="925.75"/>
			<point x="74.25" y="1000"/>
			<point x="165" y="1000" type="curve" smooth="yes"/>
			<point x="-164" y="1000" type="line"/>
			<point x="-73.25" y="1000"/>
			<point x="1" y="925.75"/>
			<point x="1" y="835" type="curve" smooth="yes"/>
			<point x="1" y="835" type="line"/>
			<point x="1" y="744.25"/>
			<point x="-73.25" y="670"/>
			<point x="-164" y="670" type="curve" smooth="yes"/>
			<point x="165" y="670" type="line"/>
			<point x="74.25" y="670"/>
			<point x="0" y="744.25"/>
			<point x="0" y="835" type="curve" smooth="yes"/>
			<point x="0" y="835" type="line"/>
		</contour>
	</outline>
</glyph>
<glyph name="_34.clip" format="2">
	<advance width="1"/>
	<outline>
		<contour>
			<point x="0" y="923.5"/>
			<point x="76.5" y="1000"/>
			<point x="170" y="1000" type="curve" smooth="yes"/>
			<point x="-169" y="1000" type="line"/>
			<point x="-75.5" y="1000"/>
			<point x="1" y="923.5"/>
			<point x="1" y="830" type="curve" smooth="yes"/>
			<point x="1" y="830" type="line"/>
			<point x="1" y="736.5"/>
			<point x="-75.5" y="660"/>
			<point x="-169" y="660" type="curve" smooth="yes"/>
			<point x="170" y="660" type="line"/>
			<point x="76.5" y="660"/>
			<point x="0" y="736.5"/>
			<point x="0" y="830" type="curve" smooth="yes"/>
			<point x="0" y="830" type="line"/>
		</contour>
	</outline>
</glyph>
<glyph name="_35.clip" format="2">
	<advance width="1"/>
	<outline>
		<contour>
			<point x="0" y="921.25"/>
			<point x="78.75" y="1000"/>
			<point x="175" y="1000" type="curve" smooth="yes"/>
			<point x="-174" y="1000" type="line"/>
			<point x="-77.75" y="1000"/>
			<point x="1" y="921.25"/>
			<point x="1" y="825" type="curve" smooth="yes"/>
			<point x="1" y="825" type="line"/>
			<point x="1" y="728.75"/>
			<point x="-77.75" y="650"/>
			<point x="-174" y="650" type="curve" smooth="yes"/>
			<point x="175" y="650" type="line"/>
			<point x="78.75" y="650"/>
			<point x="0" y="728.75"/>
			<point x="0" y="825" type="curve" smooth="yes"/>
			<point x="0" y="825" type="line"/>
		</contour>
	</outline>
</glyph>
<glyph name="_36.clip" format="2">
	<advance width="1"/>
	<outline>
		<contour>
			<point x="0" y="919"/>
			<point x="80" y="1000"/>
			<point x="180" y="1000" type="curve" smooth="yes"/>
			<point x="-179" y="1000" type="line"/>
			<point x="-79" y="1000"/>
			<point x="1" y="919"/>
			<point x="1" y="820" type="curve" smooth="yes"/>
			<point x="1" y="820" type="line"/>
			<point x="1" y="721"/>
			<point x="-79" y="640"/>
			<point x="-179" y="640" type="curve" smooth="yes"/>
			<point x="180" y="640" type="line"/>
			<point x="80" y="640"/>
			<point x="0" y="721"/>
			<point x="0" y="820" type="curve" smooth="yes"/>
			<point x="0" y="820" type="line"/>
		</contour>
	</outline>
</glyph>
<glyph name="_37.clip" format="2">
	<advance width="1"/>
	<outline>
		<contour>
			<point x="0" y="916.75"/>
			<point x="83.25" y="1000"/>
			<point x="185" y="1000" type="curve" smooth="yes"/>
			<point x="-184" y="1000" type="line"/>
			<point x="-82.25" y="1000"/>
			<point x="1" y="916.75"/>
			<point x="1" y="815" type="curve" smooth="yes"/>
			<point x="1" y="815" type="line"/>
			<point x="1" y="713.25"/>
			<point x="-82.25" y="630"/>
			<point x="-184" y="630" type="curve" smooth="yes"/>
			<point x="185" y="630" type="line"/>
			<point x="83.25" y="630"/>
			<point x="0" y="713.25"/>
			<point x="0" y="815" type="curve" smooth="yes"/>
			<point x="0" y="815" type="line"/>
		</contour>
	</outline>
</glyph>
<glyph name="_38.clip" format="2">
	<advance width="1"/>
	<outline>
		<contour>
			<point x="0" y="914.5"/>
			<point x="85.5" y="1000"/>
			<point x="190" y="1000" type="curve" smooth="yes"/>
			<point x="-189" y="1000" type="line"/>
			<point x="-84.5" y="1000"/>
			<point x="1" y="914.5"/>
			<point x="1" y="810" type="curve" smooth="yes"/>
			<point x="1" y="810" type="line"/>
			<point x="1" y="705.5"/>
			<point x="-84.5" y="620"/>
			<point x="-189" y="620" type="curve" smooth="yes"/>
			<point x="190" y="620" type="line"/>
			<point x="85.5" y="620"/>
			<point x="0" y="705.5"/>
			<point x="0" y="810" type="curve" smooth="yes"/>
			<point x="0" y="810" type="line"/>
		</contour>
	</outline>
</glyph>
<glyph name="_39.clip" format="2">
	<advance width="1"/>
	<outline>
		<contour>
			<point x="0" y="912.25"/>
			<point x="87.75" y="1000"/>
			<point x="195" y="1000" type="curve" smooth="yes"/>
			<point x="-194" y="1000" type="line"/>
			<point x="-86.75" y="1000"/>
			<point x="1" y="912.25"/>
			<point x="1" y="805" type="curve" smooth="yes"/>
			<point x="1" y="805" type="line"/>
			<point x="1" y="697.75"/>
			<point x="-86.75" y="610"/>
			<point x="-194" y="610" type="curve" smooth="yes"/>
			<point x="195" y="610" type="line"/>
			<point x="87.75" y="610"/>
			<point x="0" y="697.75"/>
			<point x="0" y="805" type="curve" smooth="yes"/>
			<point x="0" y="805" type="line"/>
		</contour>
	</outline>
</glyph>
<glyph name="_5.clip" format="2">
	<advance width="1"/>
	<outline>
		<contour>
			<point x="0" y="988.75"/>
			<point x="11.25" y="1000"/>
			<point x="25" y="1000" type="curve" smooth="yes"/>
			<point x="-24" y="1000" type="line"/>
			<point x="-10.25" y="1000"/>
			<point x="1" y="988.75"/>
			<point x="1" y="975" type="curve" smooth="yes"/>
			<point x="1" y="975" type="line"/>
			<point x="1" y="961.25"/>
			<point x="-10.25" y="950"/>
			<point x="-24" y="950" type="curve" smooth="yes"/>
			<point x="25" y="950" type="line"/>
			<point x="11.25" y="950"/>
			<point x="0" y="961.25"/>
			<point x="0" y="975" type="curve" smooth="yes"/>
			<point x="0" y="975" type="line"/>
		</contour>
	</outline>
</glyph>
